<?xml version="1.0" encoding="utf-8"?>
<!-- Generator: Adobe Illustrator 17.0.0, SVG Export Plug-In . SVG Version: 6.00 Build 0)  -->
<!DOCTYPE svg PUBLIC "-//W3C//DTD SVG 1.1//EN" "http://www.w3.org/Graphics/SVG/1.1/DTD/svg11.dtd">
<svg version="1.1" id="Layer_1" xmlns="http://www.w3.org/2000/svg" xmlns:xlink="http://www.w3.org/1999/xlink" x="0px" y="0px"
	 width="224.345px" height="30px" viewBox="0 0 224.345 30" enable-background="new 0 0 224.345 30" xml:space="preserve">
<g>
	<path fill="#FFFFFF" d="M107.167,9.871h-5.093V6.475h13.867V9.87h-5.092v13.342h-3.682C107.167,23.212,107.167,9.871,107.167,9.871
		z"/>
	<path fill="#FFFFFF" d="M118.456,6.475h3.682v16.737h-3.682V6.475z"/>
	<path fill="#FFFFFF" d="M124.698,20.773l2.176-2.605c1.505,1.244,3.084,2.032,4.996,2.032c1.507,0,2.415-0.597,2.415-1.579v-0.047
		c0-0.932-0.573-1.411-3.371-2.128c-3.372-0.86-5.547-1.793-5.547-5.116v-0.048c0-3.037,2.439-5.045,5.858-5.045
		c2.439,0,4.519,0.765,6.216,2.128l-1.912,2.774c-1.483-1.028-2.941-1.65-4.351-1.65c-1.411,0-2.152,0.645-2.152,1.458v0.048
		c0,1.1,0.717,1.458,3.61,2.199c3.394,0.885,5.308,2.105,5.308,5.021v0.047c0,3.325-2.534,5.189-6.146,5.189
		C129.264,23.451,126.706,22.566,124.698,20.773z"/>
	<path fill="#FFFFFF" d="M139.933,14.891v-0.048c0-4.758,3.587-8.654,8.727-8.654c3.156,0,5.045,1.052,6.599,2.582l-2.343,2.702
		c-1.291-1.172-2.606-1.889-4.279-1.889c-2.822,0-4.854,2.343-4.854,5.212v0.047c0,2.869,1.984,5.261,4.854,5.261
		c1.913,0,3.084-0.766,4.399-1.961l2.343,2.368c-1.721,1.84-3.635,2.987-6.863,2.987C143.591,23.498,139.933,19.697,139.933,14.891z
		"/>
	<path fill="#FFFFFF" d="M157.845,6.475h3.682v6.623h6.791V6.475H172v16.737h-3.682v-6.719h-6.791v6.719h-3.682L157.845,6.475
		L157.845,6.475z"/>
	<rect x="94.868" y="0" fill="#FFFFFF" width="0.646" height="29.687"/>
	<g>
		<path fill="#FFFFFF" d="M37.384,6.28h3.421l7.899,10.384V6.28h3.662v16.864h-3.157l-8.163-10.722v10.722h-3.662V6.28z"/>
		<path fill="#FFFFFF" d="M60.699,16.494L54.219,6.28h4.336l4.023,6.769l4.096-6.769h4.216l-6.482,10.144v6.72h-3.709
			C60.699,23.144,60.699,16.494,60.699,16.494z"/>
		<path fill="#FFFFFF" d="M72.476,15.917V6.28h3.709v9.54c0,2.747,1.372,4.169,3.638,4.169c2.264,0,3.636-1.374,3.636-4.046V6.28
			h3.711v9.517c0,5.105-2.867,7.611-7.397,7.611C75.245,23.408,72.476,20.88,72.476,15.917z"/>
	</g>
	<path fill="#FFFFFF" d="M0,0v29.687h29.685V0H0z M18.334,6.552c0.009-0.024,0.039-0.041,0.06-0.013
		c0.219,0.256,1.076,2.42,0.608,3.64c-0.301,0.782-3.655,0.883-4.514,5.004c-0.011,0.034-0.052,0.045-0.071,0.002
		c-1.49-3.475,1.424-5.636,2.184-6.248C17.14,8.5,17.877,7.551,18.334,6.552z M15.368,4.708c0.013-0.045,0.041-0.062,0.073-0.019
		c0.23,0.283,0.93,2.264,0.928,3.486c0,0.088,0.021,0.159-0.062,0.234c-0.595,0.546-4.231,3.054-2.412,6.942
		c0.021,0.043-0.024,0.071-0.06,0.047c-2.934-1.918-3.576-3.952-0.767-7.292C13.399,7.712,15.057,5.915,15.368,4.708z M9.265,10.371
		c0.902-1.497,1.493-2.796,1.51-3.314c0.004-0.056,0.049-0.062,0.103,0.017c0.206,0.311,0.7,1.458,0.754,1.911
		c0.009,0.077,0,0.144-0.028,0.183c-1.261,1.907-1.566,4.499,1.478,6.315c0.045,0.028,0.032,0.073-0.013,0.073
		C8.303,15.421,8.305,11.965,9.265,10.371z M14.402,26.217c-0.101,0.309-0.552,0.208-0.586,0l-0.898-8.225h2.521L14.402,26.217z
		 M16.32,17.396h-4.285V16.15h4.285V17.396z M15.085,15.543c-0.026-0.002-0.058-0.021-0.049-0.06
		c0.183-1.529,1.235-3.233,2.983-3.982c1.959-0.84,2.667-2.221,2.826-2.607c0.028-0.075,0.08-0.064,0.077,0.043
		C20.901,10.788,20.516,15.738,15.085,15.543z"/>
	<path fill="#FFFFFF" d="M187,6.475h3.682v16.737H187V6.475z"/>
	<rect x="179.521" y="0" fill="#FFFFFF" width="0.646" height="29.687"/>
	<path fill="#FFFFFF" d="M198.292,9.871h-5.093V6.475h13.867V9.87h-5.092v13.342h-3.682C198.292,23.212,198.292,9.871,198.292,9.871
		z"/>
	<g>
		<path fill="#FFFFFF" d="M209.591,6.411h6.864c4.008,0,6.433,2.376,6.433,5.808v0.048c0,3.888-3.024,5.905-6.793,5.905h-2.808v5.04
			h-3.696V6.411z M216.215,14.883c1.849,0,2.929-1.104,2.929-2.544v-0.048c0-1.656-1.152-2.544-3.001-2.544h-2.855v5.137H216.215z"
			/>
	</g>
</g>
</svg>
